<?xml version="1.0" encoding="utf-8"?>
<!-- Generator: Adobe Illustrator 16.0.0, SVG Export Plug-In . SVG Version: 6.00 Build 0)  -->
<!DOCTYPE svg PUBLIC "-//W3C//DTD SVG 1.1//EN" "http://www.w3.org/Graphics/SVG/1.1/DTD/svg11.dtd">
<svg version="1.1" id="Layer_1" xmlns="http://www.w3.org/2000/svg" xmlns:xlink="http://www.w3.org/1999/xlink" x="0px" y="0px"
	 width="220px" height="75px" viewBox="0 0 220 75" enable-background="new 0 0 220 75" xml:space="preserve">
<g>
	<rect x="194.587" y="4.269" fill="#0066A5" width="15.413" height="38.697"/>
	<polygon fill="#0066A5" points="69.455,4.269 69.455,12.412 87.478,12.412 87.478,42.966 102.934,42.966 102.934,12.412 
		120.963,12.412 120.963,4.269 	"/>
	<path fill="#0066A5" d="M60.333,12.412V4.269H10v31.292c0,4.083,3.312,7.394,7.394,7.394h42.939v-8.147H25.459v-7.125h34.874
		v-8.145H25.459v-7.126H60.333z"/>
	<g>
		<polygon fill="#F05A22" points="167.44,24.917 149.249,24.917 170.114,45.558 188.308,45.558 		"/>
		<path fill="#F05A22" d="M175.512,4.269h-46.805v38.697h15.459V12.412h23.279v12.506h15.462V11.655
			C182.907,7.573,179.597,4.269,175.512,4.269z"/>
	</g>
</g>
<path fill="#0066A5" d="M18.136,62.071c-0.407,0.229-0.963,0.345-1.668,0.345s-1.264-0.118-1.678-0.355s-0.62-0.553-0.62-0.946
	c0-0.406,0.206-0.725,0.62-0.955c0.414-0.231,0.973-0.348,1.678-0.348c0.691,0,1.245,0.116,1.657,0.348
	c0.414,0.23,0.621,0.549,0.621,0.955S18.542,61.841,18.136,62.071z M19.133,52.469h-5.391v1.872h5.391V52.469z M21.553,55.317
	h-10.23v1.892h10.23V55.317z M27.371,57.696h-2.259v-5.104h-2.135v13.118h2.135v-5.857h2.259V57.696z M19.804,58.908
	c-0.813-0.617-1.933-0.926-3.355-0.926c-1.344,0-2.448,0.305-3.316,0.915c-0.867,0.609-1.301,1.355-1.301,2.236
	c0,0.814,0.43,1.537,1.29,2.168c0.862,0.63,1.964,0.945,3.306,0.945c1.425,0,2.547-0.312,3.367-0.937
	c0.819-0.623,1.231-1.35,1.231-2.177C21.025,60.268,20.616,59.525,19.804,58.908z M25.662,68.029H16v-2.908h-2.258v4.963h11.92
	V68.029z"/>
<path fill="#0066A5" d="M49.892,61.633H42.63v2.971h5.247v5.898h-2.114v-3.825H35.611v-2.073h4.781v-2.971h-6.61v-2.055h11.269
	c0.122-0.569,0.255-1.24,0.396-2.013c0.142-0.773,0.241-1.533,0.295-2.278h-10.17v-2.055h12.631c0,0.325-0.048,0.848-0.142,1.566
	c-0.096,0.719-0.185,1.322-0.266,1.811c-0.121,0.677-0.224,1.237-0.305,1.678c-0.082,0.439-0.17,0.871-0.265,1.291h2.665V61.633z"/>
<path fill="#0066A5" d="M71.893,65.519h-2.115v-6.692h-3.233v-2.155h3.233v-4.088h2.115V65.519z M72.238,70.075H60.115v-5.838h2.115
	v3.783h10.008V70.075z M61.315,55.695h-3.091V53.6h8.461v2.096h-3.111v0.264c0,0.719,0.131,1.37,0.396,1.953
	s0.628,1.085,1.089,1.505s0.867,0.739,1.221,0.957c0.352,0.217,0.753,0.406,1.2,0.569l-1.281,1.829
	c-0.299-0.121-0.604-0.27-0.917-0.447c-0.311-0.177-0.69-0.439-1.139-0.794c-0.352-0.27-0.66-0.551-0.925-0.843
	c-0.265-0.291-0.519-0.595-0.763-0.906c-0.177,0.34-0.401,0.682-0.671,1.028c-0.272,0.346-0.604,0.688-0.998,1.027
	c-0.434,0.379-0.844,0.685-1.23,0.915s-0.734,0.427-1.047,0.59l-1.505-1.771c0.461-0.216,0.929-0.481,1.403-0.793
	c0.474-0.312,0.977-0.719,1.506-1.221c0.42-0.419,0.758-0.94,1.017-1.565c0.258-0.625,0.386-1.302,0.386-2.034V55.695z"/>
<path fill="#0066A5" d="M84.021,56.467h-3.52v-2.054h9.315v2.054h-3.538v0.754c0,0.501,0.088,1.279,0.265,2.329
	c0.176,1.051,0.542,1.996,1.098,2.836c0.501,0.733,1.023,1.33,1.566,1.791c0.542,0.46,0.941,0.772,1.2,0.936l-1.363,1.77
	c-0.163-0.109-0.471-0.329-0.926-0.661c-0.453-0.332-0.911-0.775-1.372-1.332c-0.353-0.435-0.655-0.868-0.905-1.303
	c-0.251-0.433-0.472-0.86-0.661-1.28c-0.19,0.502-0.424,0.99-0.702,1.464c-0.278,0.475-0.634,0.977-1.068,1.505
	c-0.366,0.447-0.731,0.835-1.099,1.16c-0.365,0.325-0.778,0.658-1.239,0.996l-1.749-1.546c0.718-0.5,1.378-1.064,1.982-1.688
	c0.604-0.623,1.108-1.31,1.515-2.055c0.448-0.841,0.76-1.746,0.937-2.715c0.176-0.971,0.265-1.706,0.265-2.207V56.467z
	 M96.165,61.734h-2.279v8.748h-2.114V52.583h2.114v6.915h2.279V61.734z"/>
<path fill="#0066A5" d="M113.325,68.556c-0.726,0.229-1.673,0.346-2.839,0.346c-1.179,0-2.121-0.126-2.827-0.376
	c-0.705-0.252-1.058-0.573-1.058-0.966c0-0.421,0.355-0.723,1.067-0.905c0.712-0.184,1.658-0.275,2.837-0.275
	c1.169,0,2.11,0.103,2.829,0.306s1.077,0.508,1.077,0.915C114.412,68.006,114.049,68.325,113.325,68.556z M115.328,65.393
	c-1.125-0.59-2.739-0.885-4.842-0.885c-2.115,0-3.726,0.283-4.831,0.845c-1.104,0.562-1.657,1.305-1.657,2.227
	c0,0.908,0.563,1.661,1.688,2.259c1.125,0.597,2.726,0.894,4.8,0.894c2.103,0,3.717-0.285,4.842-0.854
	c1.125-0.57,1.688-1.309,1.688-2.218C117.017,66.739,116.453,65.982,115.328,65.393z M118.543,61.701h-6.856v-1.323h5.086v-1.851
	h-10.13v-1.038h9.866v-1.708h-9.866v-1.038h9.906v-1.851h-12.104v7.485h4.841v1.323h-6.854v1.952h16.11V61.701z"/>
<path fill="#0066A5" d="M140.259,65.519h-2.137V52.583h2.137V65.519z M140.624,70.075h-12.083v-5.594h2.157v3.539h9.926V70.075z
	 M136.312,61.125l-1.241,1.79c-0.298-0.122-0.699-0.339-1.201-0.65c-0.501-0.312-0.969-0.671-1.403-1.077
	c-0.298-0.285-0.572-0.576-0.822-0.876c-0.251-0.299-0.493-0.638-0.723-1.017c-0.19,0.366-0.421,0.735-0.692,1.109
	c-0.271,0.373-0.604,0.763-0.995,1.168c-0.421,0.436-0.853,0.812-1.293,1.13s-0.829,0.573-1.168,0.762l-1.485-1.667
	c0.528-0.299,1.073-0.668,1.637-1.108c0.562-0.44,1.075-0.967,1.536-1.577c0.528-0.679,0.881-1.365,1.058-2.064
	c0.176-0.698,0.264-1.42,0.264-2.165V53.07h2.258v1.812c0,0.718,0.098,1.42,0.295,2.104s0.519,1.305,0.968,1.86
	c0.46,0.556,0.965,1.028,1.515,1.413C135.366,60.647,135.865,60.936,136.312,61.125z"/>
<path fill="#0066A5" d="M155.186,55.939c0.394,0.501,0.59,1.097,0.59,1.789c0,0.678-0.196,1.269-0.59,1.77s-0.969,0.752-1.729,0.752
	c-0.746,0-1.319-0.251-1.72-0.752c-0.398-0.501-0.6-1.092-0.6-1.77c0-0.692,0.201-1.288,0.6-1.789c0.4-0.503,0.974-0.754,1.72-0.754
	C154.217,55.186,154.792,55.437,155.186,55.939z M155.512,53.608c-0.611-0.317-1.295-0.478-2.055-0.478
	c-1.303,0-2.377,0.451-3.225,1.354c-0.847,0.9-1.271,1.982-1.271,3.243s0.424,2.339,1.271,3.234
	c0.848,0.896,1.922,1.343,3.225,1.343c0.772,0,1.468-0.166,2.085-0.498c0.616-0.333,1.129-0.77,1.534-1.312h3.906v5.023h2.116
	V52.583h-2.116v2.299h-3.966C156.623,54.352,156.122,53.929,155.512,53.608z M157.942,58.125c0.007-0.128,0.011-0.26,0.011-0.396
	c0-0.148-0.008-0.292-0.021-0.427c-0.015-0.136-0.027-0.271-0.041-0.407h3.092v1.606h-3.071
	C157.925,58.379,157.936,58.255,157.942,58.125z M163.465,68.021h-9.967V64.34H151.3v5.735h12.165V68.021z"/>
<path fill="#0066A5" d="M187.193,63.034h-7.344V70.5h-2.177v-7.466h-6.591V60.98h11.126c0.15-0.488,0.316-1.275,0.499-2.359
	c0.183-1.086,0.301-2.103,0.356-3.052h-10.171v-2.055h12.611c0,0.299-0.054,0.92-0.164,1.861c-0.107,0.942-0.216,1.738-0.324,2.391
	c-0.097,0.664-0.21,1.291-0.347,1.881c-0.136,0.59-0.229,1.033-0.283,1.333h2.808V63.034z"/>
<path fill="#0066A5" d="M201.883,54.601c0.347,0.358,0.519,0.695,0.519,1.006c0,0.286-0.168,0.6-0.508,0.946
	c-0.339,0.347-0.909,0.519-1.708,0.519c-0.76,0-1.316-0.172-1.668-0.519c-0.353-0.347-0.53-0.66-0.53-0.946
	c0-0.311,0.171-0.647,0.51-1.006c0.339-0.359,0.902-0.538,1.688-0.538C200.973,54.062,201.538,54.241,201.883,54.601z
	 M209.034,52.576h-2.116v10.11h-3.764v1.952h3.764v1.444h2.116V52.576z M206.369,59.331c-0.393,0.094-1.325,0.206-2.797,0.334
	c-1.472,0.129-2.654,0.193-3.55,0.193h-5.491v2.095h3.763v3.011h2.217v-3.031c0.556,0,1.501-0.056,2.838-0.172
	c1.336-0.114,2.343-0.241,3.021-0.378V59.331z M209.399,68.016h-9.946v-2.339h-2.238v4.394h12.185V68.016z M196.961,53.278
	c-0.738,0.672-1.107,1.447-1.107,2.328c0,0.896,0.365,1.676,1.098,2.34s1.811,0.996,3.234,0.996c1.409,0,2.481-0.328,3.214-0.986
	c0.731-0.657,1.1-1.44,1.1-2.35c0-0.881-0.357-1.656-1.068-2.328c-0.713-0.671-1.795-1.007-3.245-1.007
	C198.775,52.271,197.701,52.607,196.961,53.278z"/>
</svg>
