<?xml version="1.0" encoding="utf-8"?>
<!-- Generator: Adobe Illustrator 16.0.0, SVG Export Plug-In . SVG Version: 6.00 Build 0)  -->
<!DOCTYPE svg PUBLIC "-//W3C//DTD SVG 1.1//EN" "http://www.w3.org/Graphics/SVG/1.1/DTD/svg11.dtd">
<svg version="1.1" id="Layer_1" xmlns="http://www.w3.org/2000/svg" xmlns:xlink="http://www.w3.org/1999/xlink" x="0px" y="0px"
	 width="220px" height="75px" viewBox="0 0 220 75" enable-background="new 0 0 220 75" xml:space="preserve">
<g>
	<rect x="194.587" y="4.269" width="15.413" height="38.697"/>
	<polygon points="69.455,4.269 69.455,12.412 87.478,12.412 87.478,42.966 102.934,42.966 102.934,12.412 120.963,12.412 
		120.963,4.269 	"/>
	<path d="M60.333,12.412V4.269H10v31.292c0,4.083,3.312,7.394,7.394,7.394h42.939v-8.147H25.459v-7.125h34.874v-8.145H25.459v-7.126
		H60.333z"/>
	<g>
		<polygon points="167.439,24.917 149.249,24.917 170.113,45.559 188.309,45.559 		"/>
		<path d="M175.512,4.269h-46.805v38.697h15.459V12.412h23.279v12.506h15.462V11.655C182.907,7.573,179.598,4.269,175.512,4.269z"/>
	</g>
</g>
<path d="M18.136,62.07c-0.407,0.229-0.963,0.346-1.668,0.346c-0.705,0-1.264-0.118-1.678-0.355c-0.414-0.236-0.62-0.553-0.62-0.945
	c0-0.406,0.206-0.725,0.62-0.955s0.973-0.348,1.678-0.348c0.691,0,1.245,0.115,1.657,0.348c0.414,0.23,0.621,0.549,0.621,0.955
	S18.542,61.841,18.136,62.07z M19.133,52.469h-5.391v1.872h5.391V52.469z M21.553,55.316h-10.23v1.893h10.23V55.316z M27.371,57.695
	h-2.259v-5.104h-2.135V65.71h2.135v-5.856h2.259V57.695z M19.804,58.908c-0.813-0.617-1.933-0.926-3.355-0.926
	c-1.344,0-2.448,0.305-3.316,0.914c-0.867,0.609-1.301,1.355-1.301,2.236c0,0.814,0.43,1.537,1.29,2.168
	c0.862,0.631,1.964,0.945,3.306,0.945c1.425,0,2.547-0.312,3.367-0.938c0.819-0.623,1.231-1.35,1.231-2.177
	C21.025,60.268,20.616,59.525,19.804,58.908z M25.662,68.029H16v-2.908h-2.258v4.963h11.92V68.029z"/>
<path d="M49.892,61.633H42.63v2.971h5.247v5.898h-2.114v-3.825H35.611v-2.073h4.781v-2.971h-6.61v-2.055h11.269
	c0.122-0.569,0.255-1.24,0.396-2.014c0.142-0.772,0.241-1.532,0.295-2.277h-10.17v-2.055h12.631c0,0.324-0.048,0.848-0.142,1.565
	c-0.096,0.72-0.185,1.322-0.266,1.812c-0.121,0.677-0.224,1.236-0.305,1.678c-0.082,0.439-0.17,0.871-0.265,1.291h2.665v2.055
	H49.892z"/>
<path d="M71.893,65.52h-2.115v-6.692h-3.233v-2.155h3.233v-4.088h2.115V65.52z M72.238,70.075H60.115v-5.839h2.115v3.783h10.008
	V70.075z M61.315,55.695h-3.091V53.6h8.461v2.096h-3.111v0.265c0,0.72,0.131,1.37,0.396,1.953c0.265,0.583,0.628,1.085,1.089,1.505
	s0.867,0.739,1.221,0.957c0.352,0.217,0.753,0.406,1.2,0.568l-1.281,1.83c-0.299-0.121-0.604-0.271-0.917-0.447
	c-0.311-0.178-0.69-0.439-1.139-0.794c-0.352-0.271-0.66-0.552-0.925-0.843c-0.265-0.291-0.519-0.596-0.763-0.906
	c-0.177,0.34-0.401,0.682-0.671,1.027c-0.272,0.347-0.604,0.688-0.998,1.027c-0.434,0.379-0.844,0.686-1.23,0.915
	c-0.386,0.229-0.734,0.427-1.047,0.59l-1.505-1.771c0.461-0.217,0.929-0.481,1.403-0.793c0.474-0.312,0.977-0.719,1.506-1.221
	c0.42-0.42,0.758-0.94,1.017-1.565c0.258-0.625,0.386-1.302,0.386-2.034L61.315,55.695L61.315,55.695z"/>
<path d="M84.021,56.467h-3.52v-2.054h9.315v2.054h-3.538v0.754c0,0.502,0.088,1.279,0.265,2.329
	c0.176,1.052,0.542,1.996,1.098,2.836c0.501,0.733,1.023,1.33,1.566,1.791c0.542,0.46,0.941,0.772,1.2,0.937l-1.363,1.77
	c-0.163-0.109-0.471-0.328-0.926-0.66c-0.453-0.332-0.911-0.775-1.372-1.332c-0.353-0.436-0.655-0.869-0.905-1.304
	c-0.251-0.433-0.472-0.86-0.661-1.28c-0.19,0.502-0.424,0.99-0.702,1.465s-0.634,0.977-1.068,1.504
	c-0.366,0.447-0.731,0.836-1.099,1.16c-0.365,0.325-0.778,0.658-1.239,0.996l-1.749-1.546c0.718-0.5,1.378-1.063,1.982-1.688
	c0.604-0.623,1.108-1.31,1.515-2.056c0.448-0.841,0.76-1.746,0.937-2.715c0.176-0.971,0.265-1.705,0.265-2.207L84.021,56.467
	L84.021,56.467z M96.165,61.734h-2.279v8.748h-2.114V52.583h2.114v6.915h2.279V61.734z"/>
<path d="M113.325,68.557c-0.726,0.229-1.673,0.346-2.839,0.346c-1.179,0-2.121-0.127-2.827-0.377
	c-0.705-0.252-1.058-0.572-1.058-0.965c0-0.422,0.355-0.724,1.067-0.906c0.712-0.184,1.658-0.274,2.837-0.274
	c1.169,0,2.11,0.103,2.829,0.306s1.077,0.508,1.077,0.916C114.412,68.006,114.049,68.325,113.325,68.557z M115.328,65.393
	c-1.125-0.59-2.739-0.885-4.842-0.885c-2.115,0-3.726,0.283-4.831,0.846c-1.104,0.562-1.657,1.305-1.657,2.227
	c0,0.908,0.563,1.661,1.688,2.259c1.125,0.597,2.726,0.894,4.8,0.894c2.103,0,3.717-0.284,4.842-0.854
	c1.125-0.57,1.688-1.309,1.688-2.218C117.018,66.739,116.453,65.982,115.328,65.393z M118.543,61.701h-6.855v-1.323h5.086v-1.851
	h-10.13v-1.038h9.866v-1.708h-9.866v-1.038h9.906v-1.851h-12.104v7.484h4.841V61.7h-6.854v1.952h16.11L118.543,61.701
	L118.543,61.701z"/>
<path d="M140.259,65.52h-2.137V52.583h2.137V65.52z M140.624,70.075h-12.083V64.48h2.156v3.539h9.927V70.075L140.624,70.075z
	 M136.312,61.125l-1.242,1.79c-0.297-0.122-0.698-0.339-1.2-0.649c-0.501-0.312-0.97-0.672-1.403-1.078
	c-0.298-0.285-0.572-0.576-0.822-0.875s-0.492-0.639-0.723-1.018c-0.189,0.366-0.421,0.734-0.691,1.109
	c-0.271,0.373-0.604,0.763-0.996,1.168c-0.42,0.436-0.853,0.812-1.293,1.13c-0.439,0.317-0.828,0.573-1.168,0.762l-1.484-1.667
	c0.527-0.299,1.072-0.668,1.637-1.107c0.562-0.44,1.075-0.967,1.536-1.578c0.528-0.678,0.881-1.364,1.058-2.063
	c0.176-0.698,0.265-1.42,0.265-2.165V53.07h2.258v1.812c0,0.718,0.099,1.42,0.295,2.104c0.197,0.684,0.519,1.305,0.968,1.859
	c0.461,0.557,0.965,1.028,1.516,1.413C135.366,60.646,135.865,60.936,136.312,61.125z"/>
<path d="M155.186,55.939c0.395,0.5,0.59,1.097,0.59,1.789c0,0.678-0.195,1.269-0.59,1.77c-0.394,0.501-0.969,0.752-1.729,0.752
	c-0.746,0-1.318-0.251-1.721-0.752c-0.397-0.501-0.6-1.092-0.6-1.77c0-0.692,0.201-1.289,0.6-1.789
	c0.4-0.504,0.975-0.754,1.721-0.754C154.217,55.186,154.792,55.438,155.186,55.939z M155.512,53.607
	c-0.611-0.316-1.295-0.478-2.055-0.478c-1.303,0-2.377,0.451-3.225,1.354c-0.848,0.899-1.271,1.981-1.271,3.242
	c0,1.262,0.424,2.34,1.271,3.234c0.848,0.896,1.922,1.344,3.225,1.344c0.771,0,1.468-0.166,2.085-0.498
	c0.616-0.334,1.129-0.771,1.534-1.312h3.906v5.023h2.115V52.583h-2.115v2.299h-3.967C156.623,54.352,156.122,53.93,155.512,53.607z
	 M157.941,58.125c0.008-0.128,0.012-0.26,0.012-0.396c0-0.147-0.008-0.291-0.021-0.427c-0.015-0.136-0.027-0.271-0.041-0.407h3.092
	v1.606h-3.07C157.925,58.379,157.936,58.255,157.941,58.125z M163.465,68.021h-9.967V64.34H151.3v5.735h12.165V68.021z"/>
<path d="M187.193,63.034h-7.344V70.5h-2.178v-7.466h-6.591V60.98h11.126c0.15-0.488,0.316-1.275,0.499-2.359
	c0.183-1.086,0.301-2.104,0.356-3.053h-10.172v-2.055h12.611c0,0.299-0.055,0.92-0.164,1.861c-0.107,0.941-0.216,1.738-0.324,2.391
	c-0.097,0.664-0.209,1.291-0.347,1.881c-0.136,0.59-0.229,1.033-0.283,1.334h2.808v2.054H187.193z"/>
<path d="M201.883,54.602c0.348,0.357,0.52,0.694,0.52,1.006c0,0.285-0.168,0.6-0.508,0.945c-0.34,0.348-0.91,0.52-1.709,0.52
	c-0.76,0-1.315-0.172-1.668-0.52c-0.353-0.347-0.529-0.66-0.529-0.945c0-0.312,0.171-0.647,0.51-1.006
	c0.339-0.359,0.902-0.539,1.688-0.539C200.973,54.062,201.538,54.241,201.883,54.602z M209.034,52.576h-2.116v10.109h-3.764v1.953
	h3.764v1.443h2.116V52.576z M206.369,59.331c-0.393,0.094-1.325,0.206-2.797,0.334c-1.473,0.129-2.654,0.192-3.551,0.192h-5.49
	v2.096h3.763v3.011h2.218v-3.03c0.555,0,1.5-0.057,2.838-0.172c1.336-0.115,2.342-0.242,3.021-0.379L206.369,59.331L206.369,59.331z
	 M209.398,68.016h-9.945v-2.339h-2.238v4.394H209.4v-2.055H209.398z M196.961,53.277c-0.738,0.673-1.107,1.447-1.107,2.328
	c0,0.896,0.365,1.677,1.099,2.34c0.733,0.664,1.812,0.996,3.233,0.996c1.41,0,2.481-0.327,3.215-0.985
	c0.73-0.657,1.1-1.44,1.1-2.351c0-0.881-0.357-1.655-1.068-2.328c-0.713-0.67-1.795-1.006-3.244-1.006
	C198.775,52.271,197.701,52.607,196.961,53.277z"/>
</svg>
